<svg width="32" height="33" viewBox="0 0 32 33" fill="none" xmlns="http://www.w3.org/2000/svg">
<path d="M0.883175 11.4695L31.5263 5.57911L31.4184 4.90891L30.6461 0.134125L0 6.02506L0.120788 6.77083L0.772251 10.7998L0.880574 11.47L0.881023 11.4699V29.9059C0.881023 31.1312 1.8006 32.1341 2.925 32.1341H29.956C31.08 32.1341 32 31.1317 32 29.9059V11.4696H0.883175V11.4695ZM30.1452 0.999539L30.6902 4.36892L27.0952 1.58567L30.1452 0.999539ZM25.768 1.84081L30.0668 5.16864L26.3709 5.87882L22.0721 2.55099L25.768 1.84081ZM20.647 2.82529L24.9458 6.15312L21.2504 6.8633L16.9516 3.53547L20.647 2.82529ZM15.5269 3.80928L19.8257 7.13711L16.1298 7.84729L11.831 4.51946L15.5269 3.80928ZM10.4059 4.79376L14.7047 8.12159L11.0088 8.83177L6.71003 5.50403L10.4059 4.79376ZM5.28533 5.77833L9.58409 9.10616L5.88819 9.81635L1.58943 6.48851L5.28533 5.77833ZM0.798435 7.28882L4.46313 10.0901L1.33566 10.6911L0.798435 7.28882ZM30.5084 12.2268L26.8051 16.3179H23.0523L26.7556 12.2268H30.5084ZM25.3084 12.2268L21.6052 16.3179H17.8523L21.5556 12.2268H25.3084ZM20.1085 12.2268L16.4052 16.3179H12.6528L16.3561 12.2268H20.1085ZM14.909 12.2268L11.2057 16.3179H7.45287L11.1561 12.2268H14.909ZM1.42192 15.7473V12.2268H4.60867L1.42192 15.7473ZM5.95661 12.2268H9.70945L6.0062 16.3178H2.25336L5.95661 12.2268ZM29.9161 30.1546H2.85568V18.8523H29.9161V30.1546ZM31.4583 16.3178H28.2523L31.4583 12.8178V16.3178Z" fill="white" stroke="white" stroke-width="0.000999997"/>
<path d="M28.9647 19.8878H19.8906V22.8543H28.9647V19.8878Z" fill="white" stroke="white" stroke-width="0.000999997"/>
<path d="M28.9647 23.9384H19.8906V29.1191H28.9647V23.9384Z" fill="white" stroke="white" stroke-width="0.000999997"/>
<path d="M18.8993 19.8878H8.61328V22.8543H18.8993V19.8878Z" fill="white" stroke="white" stroke-width="0.000999997"/>
<path d="M7.61627 19.8878H3.80469V29.119H7.61627V19.8878Z" fill="white" stroke="white" stroke-width="0.000999997"/>
<path d="M18.8993 23.9384H8.61328V29.1191H18.8993V23.9384Z" fill="white" stroke="white" stroke-width="0.000999997"/>
</svg>
