<svg width="100" height="94" viewBox="0 0 100 94" fill="none" xmlns="http://www.w3.org/2000/svg">
<path d="M2.75991 34.6281L98.519 17.7428L98.1819 15.8216L95.7687 2.13412L0 19.0211L0.377459 21.159L2.41327 32.7086L2.75178 34.6298L2.75318 34.6295V87.4782C2.75318 90.9905 5.62686 93.8656 9.14056 93.8656H93.6121C97.1244 93.8656 99.9994 90.9919 99.9994 87.4782V34.6284H2.75991V34.6281ZM94.2033 4.61493L95.9062 14.2736L84.6721 6.29514L94.2033 4.61493ZM80.5246 7.02652L93.9581 16.5661L82.4085 18.6019L68.9749 9.06233L80.5246 7.02652ZM64.5217 9.84863L77.9552 19.3882L66.407 21.424L52.9734 11.8844L64.5217 9.84863ZM48.5213 12.6693L61.9548 22.2089L50.4052 24.2448L36.9716 14.7052L48.5213 12.6693ZM32.5184 15.4915L45.9519 25.0311L34.4023 27.0669L20.9687 17.5276L32.5184 15.4915ZM16.5166 18.3139L29.9501 27.8535L18.4005 29.8893L4.96693 20.3497L16.5166 18.3139ZM2.4951 22.6438L13.9472 30.6739L4.17391 32.397L2.4951 22.6438ZM95.3382 36.799L83.7656 48.5265H72.0381L83.6107 36.799H95.3382ZM79.0884 36.799L67.5158 48.5265H55.7883L67.3609 36.799H79.0884ZM62.8386 36.799L51.266 48.5265H39.5399L51.1125 36.799H62.8386ZM46.5903 36.799L35.0177 48.5265H23.2901L34.8627 36.799H46.5903ZM4.44348 46.8909V36.799H14.402L4.44348 46.8909ZM18.6143 36.799H30.3419L18.7693 48.5263H7.0417L18.6143 36.799ZM93.4874 88.1911H8.92395V55.7919H93.4874V88.1911ZM98.3066 48.5263H88.2878L98.3066 38.4932V48.5263Z" fill="#848B8E" stroke="#848B8E" stroke-width="0.000999997"/>
<path d="M90.5183 58.7603H62.1621V67.2639H90.5183V58.7603Z" fill="#848B8E" stroke="#848B8E" stroke-width="0.000999997"/>
<path d="M90.5183 70.3718H62.1621V85.2227H90.5183V70.3718Z" fill="#848B8E" stroke="#848B8E" stroke-width="0.000999997"/>
<path d="M59.0558 58.7603H26.9121V67.2639H59.0558V58.7603Z" fill="#848B8E" stroke="#848B8E" stroke-width="0.000999997"/>
<path d="M23.8037 58.7603H11.8926V85.2225H23.8037V58.7603Z" fill="#848B8E" stroke="#848B8E" stroke-width="0.000999997"/>
<path d="M59.0558 70.3718H26.9121V85.2227H59.0558V70.3718Z" fill="#848B8E" stroke="#848B8E" stroke-width="0.000999997"/>
</svg>
